<?xml version="1.0" ?><svg id="Layer_1" style="enable-background:new 0 0 80 80;" version="1.1" viewBox="0 0 80 80" xml:space="preserve" xmlns="http://www.w3.org/2000/svg" xmlns:xlink="http://www.w3.org/1999/xlink"><style type="text/css">
	.st0{fill:#22093A;stroke:#22093A;stroke-linecap:round;stroke-linejoin:round;}
	.st1{fill:#9736FF;stroke:#22093A;stroke-linecap:round;stroke-linejoin:round;}
	.st2{fill:#FCC707;stroke:#22093A;stroke-linecap:round;stroke-linejoin:round;}
	.st3{fill:none;stroke:#22093A;stroke-linecap:round;stroke-linejoin:round;}
	.st4{fill:none;stroke:#FFFFFF;stroke-linecap:round;stroke-linejoin:round;}
	.st5{fill:none;stroke:#D9BBFF;stroke-linecap:round;stroke-linejoin:round;}
</style><polygon class="st0" points="18.5,29.014 13.58,18.304001 27.351,19.167 33.641998,5.195 46.534,16.065001 62.316002,10.456   62.423,25.805 76.482002,31.740999 65.988998,45.167 74.151001,59.992001 59.293999,59.992001 59.293999,70.57 48.405998,66.700996   43.724998,77.140999 31.573,68.891998 16.215,74.120003 16.620001,60.313 6.176,56.499001 13.005,45.731998 3.958,34.813999 "/><polygon class="st1" points="18.162001,28.274 13.242,17.565001 27.013,18.427999 33.304001,4.456 46.195999,15.326   62.316002,10.456 62.084999,25.066 75.759003,31.493999 65.650002,44.426998 73.811996,59.252998 58.956001,59.252998   58.956001,69.831001 48.068001,65.961998 43.387001,76.401001 31.235001,68.153 16.282,73.611 16.282,59.574001 6.176,56.499001   12.667,44.993 3.958,34.813999 "/><path class="st0" d="M57.502522,47.053398c0.788609,0.40884,1.429562,3.398262,0.914902,5.246811  c-2.18169,7.83614-10.629902,7.222881-10.629902,7.222881s-4.25441,4.342091-12.469688,3.407001  c-8.381271-0.953999-14.036919-4.565411-15.49152-14.377621C18.169001,37.373089,27.95867,30.767839,30.548,28.246651  s3.270741-4.497271,3.543301-9.40337s2.657478-9.2671,6.950321-9.2671c2.8619,0,6.01746,3.407001,5.246811,10.221061  c-0.268745,3.341356-1.395321,6.556795-3.270741,9.33523c0,0,8.82048-2.5616,12.529499,0.81769  c1.444714,1.454592,2.162144,3.479698,1.95533,5.519371c1.906067,1.537827,2.967285,3.890392,2.858589,6.337059  C60.409702,43.939575,59.321083,45.937683,57.502522,47.053398z"/><path class="st0" d="M57.502522,35.469528c0,3.0592-2.92823,6.503071-9.510578,7.69986  c-5.996349,1.090248-10.10284-0.325779-10.10284-4.224701c0-5.723789,8.603748-5.723789,8.603748-5.723789"/><path class="st0" d="M57.502522,47.053398c0,0-5.414001,2.067089-8.64706,3.405491  c-7.41066,3.067841-11.834122-3.269211-5.90591-6.933559"/><path class="st0" d="M51.693642,49.543678c-1.664429,0.758179-6.511879,1.320782-7.384109,4.390999  c-0.557724,2.459888,0.984283,4.906151,3.444172,5.463875c0.436459,0.098957,0.885094,0.133224,1.331516,0.101704"/><path class="st2" d="M56.882271,46.603481c0.788609,0.40884,1.429562,3.398258,0.914902,5.246811  c-2.18169,7.83614-10.629898,7.222881-10.629898,7.222881s-4.25441,4.342091-12.469688,3.407001  c-8.381271-0.953999-14.036919-4.565411-15.49152-14.377628c-1.65728-11.17939,8.13236-17.784639,10.721691-20.30583  s3.270741-4.497271,3.543301-9.403379s2.657478-9.26709,6.950321-9.26709c2.8619,0,6.01746,3.407,5.246811,10.22106  c-0.268745,3.341356-1.395321,6.556795-3.270741,9.33523c0,0,8.82048-2.5616,12.529499,0.81769  c1.444714,1.454592,2.16214,3.479696,1.95533,5.519369c1.906067,1.537827,2.967285,3.890392,2.858589,6.337059  C59.789463,43.489651,58.700844,45.487762,56.882271,46.603481z"/><path class="st2" d="M56.882271,35.019611c0,3.0592-2.92823,6.503071-9.510582,7.69986  c-5.996349,1.090252-10.10284-0.325779-10.10284-4.224701c0-5.723789,8.603748-5.723789,8.603748-5.723789"/><path class="st3" d="M56.882271,46.603481c0,0-5.414001,2.067089-8.64706,3.405491  c-7.41066,3.067841-11.834118-3.269211-5.90591-6.933559"/><path class="st3" d="M52.538342,48.285999c-1.664429,0.758179-7.97683,2.128559-8.84906,5.198769  c-0.557716,2.459892,0.984299,4.906147,3.444191,5.463863c0.436462,0.098957,0.885098,0.133224,1.331528,0.1017"/><path class="st4" d="M34.08075,26.351219c-0.403076,0.674736-0.912579,1.279875-1.508789,1.792"/><path class="st4" d="M37.889099,12.25949c-2.021999,2.38836-2.526001,7.054629-2.639919,10.2445"/><path class="st4" d="M50.109669,39.433998c0.50071-0.287521,0.845139-0.55518,1.19413-0.764568"/><path class="st4" d="M39.379749,39.072102c0.196869,0.9072,3.60759,2.331532,7.082279,1.619499  c0.732655-0.144043,1.454418-0.338802,2.16008-0.58287"/><path class="st4" d="M43.094109,48.05246c1.758362,0.51265,5.521999-0.695999,6.545238-1.430271"/><path class="st4" d="M46.007439,54.924049c0,0.992378,0.72934,1.805,2.61467,1.98476"/><path class="st3" d="M23.115749,51.656349c0.707315,2.789696,2.545719,5.158169,5.07276,6.5354"/><line class="st3" x1="19.01832" x2="24.70253" y1="70.147537" y2="68.196198"/><line class="st3" x1="26.63212" x2="27.472309" y1="67.462822" y2="67.192253"/><line class="st3" x1="69.337837" x2="67.036758" y1="55.968651" y2="52.093521"/><line class="st3" x1="66.12796" x2="65.819656" y1="50.49234" y2="49.988171"/><line class="st5" x1="18.735331" x2="20.769051" y1="22.918779" y2="26.39967"/><line class="st5" x1="17.26759" x2="17.882601" y1="20.40661" y2="21.459261"/><line class="st5" x1="50.571812" x2="58.544899" y1="16.36076" y2="14.08228"/><line class="st5" x1="7.64935" x2="8.73332" y1="35.363041" y2="34.911388"/><line class="st5" x1="69.053261" x2="63.202648" y1="31.382811" y2="28.59832"/></svg>